<?xml version="1.0" encoding="utf-8"?>
<svg version="1.1" id="Layer_1" xmlns="http://www.w3.org/2000/svg" xmlns:xlink="http://www.w3.org/1999/xlink" x="0px" y="0px"
	 viewBox="8 8 16 16" style="enable-background:new 0 0 32 32;" xml:space="preserve">
<g>
	<path class="st1" d="M18.6,19.7c0.6-0.1,1.1-0.3,1.6-0.6c0.5-0.2,0.8-0.7,0.8-1.2c0-0.7-0.6-1.4-1.4-1.4c-0.2,0-0.4,0.1-0.6,0.2
		c-0.8,0.4-1.6,0.6-2.5,0.6c-0.9,0-1.8-0.2-2.5-0.6c-0.2-0.1-0.4-0.2-0.6-0.2c-0.7,0-1.4,0.6-1.4,1.4c0,0.5,0.3,1,0.8,1.2
		c0.5,0.3,1.1,0.5,1.6,0.6l-1.9,2.1c-0.5,0.6-0.4,1.4,0.1,1.9c0.6,0.5,1.4,0.4,1.9-0.1l1.9-2.2l1.9,2.2c0.5,0.6,1.4,0.6,1.9,0.1
		c0.6-0.5,0.6-1.4,0.1-1.9L18.6,19.7z"/>
	<path class="st1" d="M16.5,16.3c2.3,0,4.2-1.9,4.2-4.1S18.8,8,16.5,8s-4.2,1.9-4.2,4.1S14.2,16.3,16.5,16.3z M16.5,10.5
		c0.9,0,1.6,0.7,1.6,1.6s-0.7,1.6-1.6,1.6c-0.9,0-1.6-0.7-1.6-1.6S15.6,10.5,16.5,10.5z"/>
</g>
</svg>
