<svg width="15" height="12" viewBox="0 0 15 12" fill="none" xmlns="http://www.w3.org/2000/svg">
<path fill-rule="evenodd" clip-rule="evenodd" d="M5.72727 7.90909L5.73408 7.91435L5.72645 7.90901L5.59273 9.9149L4.37663 6.61408L11.1929 2.27578C11.5452 2.06023 11.8687 2.17601 11.6033 2.41371L5.72727 7.90909ZM3.42762 6.93082L0.505829 6.01075C-0.19026 5.79575 -0.195368 5.31312 0.662109 4.96611L13.2243 0.0793809C13.7981 -0.183424 14.3519 0.218513 14.1329 1.1044L11.9935 11.2749C11.8441 11.9975 11.4113 12.1704 10.8115 11.8365L8.32847 9.91844L6.19753 11.6255L6.18053 11.6421C5.98072 11.838 5.81543 11.9999 5.45373 11.9999L5.46546 11.8239L5.25843 11.9002L3.42762 6.93082Z" fill="#2F2F36"/>
</svg>
