<?xml version="1.0" encoding="UTF-8"?>
<svg width="32px" height="32px" viewBox="8 8 16 16" version="1.1" xmlns="http://www.w3.org/2000/svg" xmlns:xlink="http://www.w3.org/1999/xlink">
    <g id="vk" stroke="none" stroke-width="1" fill-rule="evenodd">
        <path d="M23.623,11.6940361 C23.742,11.302394 23.623,11.0178496 23.098,11.0178496 L21.353,11.0178496 C20.912,11.0178496 20.709,11.2677446 20.59,11.5344393 C20.59,11.5344393 19.692,13.8118438 18.438,15.2881142 C18.032,15.7154557 17.845,15.8572029 17.625,15.8572029 C17.506,15.8572029 17.354,15.7154557 17.354,15.3238135 L17.354,11.6761865 C17.354,11.2141957 17.218,11 16.845,11 L14.1,11 C13.829,11 13.66,11.2141957 13.66,11.4273415 C13.66,11.8725325 14.287,11.9785804 14.354,13.2249055 L14.354,15.9286014 C14.354,16.5155397 14.253,16.6226375 14.032,16.6226375 C13.439,16.6226375 11.999,14.3273835 11.135,11.7118858 C10.965,11.1963461 10.796,11 10.355,11 L8.593,11 C8.085,11 8,11.249895 8,11.5165897 C8,11.9964301 8.593,14.4166317 10.762,17.6190676 C12.202,19.8072239 14.253,20.9821504 16.1,20.9821504 C17.218,20.9821504 17.354,20.7144057 17.354,20.2702646 L17.354,18.6154977 C17.354,18.0821084 17.455,17.9928601 17.811,17.9928601 C18.065,17.9928601 18.523,18.1346073 19.557,19.1845863 C20.743,20.4298614 20.946,21 21.607,21 L23.352,21 C23.861,21 24.098,20.7322554 23.962,20.2167157 C23.81,19.701176 23.234,18.9535909 22.488,18.0642587 C22.081,17.5655187 21.471,17.0142797 21.285,16.747585 C21.031,16.3916422 21.099,16.248845 21.285,15.9286014 C21.268,15.9286014 23.403,12.7618648 23.623,11.6940361" id="Shape" fill="#333333"></path>
    </g>
</svg>
